<mxfile host="65bd71144e">
    <diagram id="QIX9GbS7zDG_VDZPxvCC" name="Page-1">
        <mxGraphModel dx="721" dy="621" grid="1" gridSize="10" guides="1" tooltips="1" connect="1" arrows="1" fold="1" page="1" pageScale="1" pageWidth="827" pageHeight="1169" math="0" shadow="0">
            <root>
                <mxCell id="0"/>
                <mxCell id="1" parent="0"/>
                <mxCell id="2" value="Speech Service" style="aspect=fixed;perimeter=ellipsePerimeter;align=center;shadow=0;dashed=0;fontColor=default;labelBackgroundColor=#FFFFFF;fontSize=12;spacingTop=3;image;image=img/lib/ibm/applications/speech_to_text.svg;labelBorderColor=none;imageBorder=none;" parent="1" vertex="1">
                    <mxGeometry x="378" y="86.19999999999999" width="41" height="41" as="geometry"/>
                </mxCell>
                <mxCell id="3" value="AI Translator" style="aspect=fixed;html=1;points=[];align=center;image;fontSize=12;image=img/lib/azure2/ai_machine_learning/Translator_Text.svg;" parent="1" vertex="1">
                    <mxGeometry x="470" y="450" width="32" height="32" as="geometry"/>
                </mxCell>
                <mxCell id="4" value="Recorder" style="html=1;verticalLabelPosition=bottom;align=center;labelBackgroundColor=none;verticalAlign=top;strokeWidth=2;strokeColor=#0080F0;shadow=0;dashed=0;shape=mxgraph.ios7.icons.microphone;" parent="1" vertex="1">
                    <mxGeometry x="166" y="91.4" width="20" height="38.2" as="geometry"/>
                </mxCell>
                <mxCell id="5" value="Knowledge Audio File" style="shadow=0;dashed=0;html=1;strokeColor=none;fillColor=#4495D1;labelPosition=center;verticalLabelPosition=bottom;verticalAlign=top;align=center;outlineConnect=0;shape=mxgraph.veeam.audio_file;" parent="1" vertex="1">
                    <mxGeometry x="265" y="132.79999999999998" width="36.8" height="50.8" as="geometry"/>
                </mxCell>
                <mxCell id="13" style="edgeStyle=none;html=1;exitX=1;exitY=0.5;exitDx=0;exitDy=0;" parent="1" source="6" target="5" edge="1">
                    <mxGeometry relative="1" as="geometry"/>
                </mxCell>
                <mxCell id="6" value="Experienced Worker" style="image;html=1;image=img/lib/clip_art/people/Construction_Worker_Man_128x128.png" parent="1" vertex="1">
                    <mxGeometry x="22" y="128.2" width="70" height="60" as="geometry"/>
                </mxCell>
                <mxCell id="7" value="Newcomers(foreign)" style="image;html=1;image=img/lib/clip_art/people/Worker_Black_128x128.png" parent="1" vertex="1">
                    <mxGeometry x="163.5" y="490" width="56.5" height="60" as="geometry"/>
                </mxCell>
                <mxCell id="8" value="Azure Storage Account" style="sketch=0;aspect=fixed;html=1;points=[];align=center;image;fontSize=12;image=img/lib/mscae/BlobBlock.svg;" parent="1" vertex="1">
                    <mxGeometry x="728" y="138.4" width="50" height="42" as="geometry"/>
                </mxCell>
                <mxCell id="9" value="Knowledge Text File" style="aspect=fixed;html=1;points=[];align=center;image;fontSize=12;image=img/lib/azure2/general/File.svg;" parent="1" vertex="1">
                    <mxGeometry x="486" y="136.4" width="36.52" height="45" as="geometry"/>
                </mxCell>
                <mxCell id="10" value="Answers" style="editableCssRules=.*;shape=image;verticalLabelPosition=bottom;labelBackgroundColor=none;verticalAlign=top;aspect=fixed;imageAspect=0;image=data:image/svg+xml,PHN2ZyB4bWxucz0iaHR0cDovL3d3dy53My5vcmcvMjAwMC9zdmciIHhtbG5zOnY9Imh0dHBzOi8vdmVjdGEuaW8vbmFubyIgd2lkdGg9IjE4IiBoZWlnaHQ9IjIwIiB2aWV3Qm94PSIwIDAgMTggMjAiPiYjeGE7CTxzdHlsZSB0eXBlPSJ0ZXh0L2NzcyI+JiN4YTsJLnN0MHtmaWxsOiM0Mjg1ZjQ7fSYjeGE7CS5zdDF7ZmlsbDojNjY5ZGY2O30mI3hhOwk8L3N0eWxlPiYjeGE7CTxwYXRoIGNsYXNzPSJzdDAiIGQ9Ik04IDBoMnYyMEg4ek00IDZoMnY4SDR6bTggMGgydjhoLTJ6TTAgM2gydjE0SDB6bTE2IDBoMnYxNGgtMnoiLz4mI3hhOwk8cGF0aCBjbGFzcz0ic3QxIiBkPSJNOCAwaDJ2MTBIOHpNNCA2aDJ2NEg0em04IDBoMnY0aC0yek0wIDNoMnY3SDB6bTE2IDBoMnY3aC0yeiIvPiYjeGE7PC9zdmc+;" parent="1" vertex="1">
                    <mxGeometry x="300" y="370" width="27" height="30" as="geometry"/>
                </mxCell>
                <mxCell id="12" value="Newcomers" style="image;html=1;image=img/lib/clip_art/people/Worker_Man_128x128.png" parent="1" vertex="1">
                    <mxGeometry x="160" y="300" width="60" height="60" as="geometry"/>
                </mxCell>
                <mxCell id="14" style="edgeStyle=none;html=1;entryX=-0.123;entryY=0.502;entryDx=0;entryDy=0;entryPerimeter=0;" parent="1" source="5" target="9" edge="1">
                    <mxGeometry relative="1" as="geometry">
                        <mxPoint x="372" y="163" as="sourcePoint"/>
                        <mxPoint x="342" y="170" as="targetPoint"/>
                    </mxGeometry>
                </mxCell>
                <mxCell id="15" style="edgeStyle=none;html=1;exitX=1;exitY=0.458;exitDx=0;exitDy=0;exitPerimeter=0;" parent="1" source="9" target="8" edge="1">
                    <mxGeometry relative="1" as="geometry">
                        <mxPoint x="378.79999999999995" y="170.1295700544655" as="sourcePoint"/>
                        <mxPoint x="500.98803999999996" y="170.99" as="targetPoint"/>
                    </mxGeometry>
                </mxCell>
                <mxCell id="19" style="edgeStyle=none;html=1;exitX=0.75;exitY=0;exitDx=0;exitDy=0;entryX=0.56;entryY=0.967;entryDx=0;entryDy=0;entryPerimeter=0;" parent="1" target="8" edge="1">
                    <mxGeometry relative="1" as="geometry">
                        <Array as="points">
                            <mxPoint x="530" y="250"/>
                        </Array>
                        <mxPoint x="490.86249999999995" y="300" as="sourcePoint"/>
                    </mxGeometry>
                </mxCell>
                <mxCell id="18" value="Questions" style="editableCssRules=.*;shape=image;verticalLabelPosition=bottom;labelBackgroundColor=none;verticalAlign=top;aspect=fixed;imageAspect=0;image=data:image/svg+xml,PHN2ZyB4bWxucz0iaHR0cDovL3d3dy53My5vcmcvMjAwMC9zdmciIHhtbG5zOnY9Imh0dHBzOi8vdmVjdGEuaW8vbmFubyIgd2lkdGg9IjE4IiBoZWlnaHQ9IjIwIiB2aWV3Qm94PSIwIDAgMTggMjAiPgoJPHN0eWxlIHR5cGU9InRleHQvY3NzIj4uc3QwIHsgZmlsbDogcmdiKDI0NCwgMTg4LCA2Nyk7IH0gLnN0MSB7IGZpbGw6IHJnYigyNDcsIDIwMCwgMTAwKTsgfSA8L3N0eWxlPgoJPHBhdGggY2xhc3M9InN0MCIgZD0iTTggMGgydjIwSDh6TTQgNmgydjhINHptOCAwaDJ2OGgtMnpNMCAzaDJ2MTRIMHptMTYgMGgydjE0aC0yeiIvPgoJPHBhdGggY2xhc3M9InN0MSIgZD0iTTggMGgydjEwSDh6TTQgNmgydjRINHptOCAwaDJ2NGgtMnpNMCAzaDJ2N0gwem0xNiAwaDJ2N2gtMnoiLz4KPC9zdmc+;" parent="1" vertex="1">
                    <mxGeometry x="300" y="270" width="27" height="30" as="geometry"/>
                </mxCell>
                <mxCell id="21" style="edgeStyle=none;html=1;" parent="1" edge="1">
                    <mxGeometry relative="1" as="geometry">
                        <mxPoint x="390" y="359" as="sourcePoint"/>
                        <mxPoint x="230" y="359" as="targetPoint"/>
                    </mxGeometry>
                </mxCell>
                <mxCell id="22" style="edgeStyle=none;html=1;entryX=1;entryY=0.5;entryDx=0;entryDy=0;" parent="1" target="7" edge="1">
                    <mxGeometry relative="1" as="geometry">
                        <mxPoint x="470" y="400" as="sourcePoint"/>
                        <mxPoint x="705.5" y="365.004" as="targetPoint"/>
                        <Array as="points">
                            <mxPoint x="440" y="490"/>
                        </Array>
                    </mxGeometry>
                </mxCell>
                <mxCell id="24" value="Storage REST API" style="aspect=fixed;html=1;points=[];align=center;image;fontSize=12;image=img/lib/azure2/other/Storage_Tasks.svg;" parent="1" vertex="1">
                    <mxGeometry x="610" y="91.19999999999999" width="40" height="40" as="geometry"/>
                </mxCell>
                <mxCell id="27" style="edgeStyle=none;html=1;" parent="1" edge="1">
                    <mxGeometry relative="1" as="geometry">
                        <mxPoint x="230" y="330" as="sourcePoint"/>
                        <mxPoint x="390" y="330" as="targetPoint"/>
                    </mxGeometry>
                </mxCell>
                <mxCell id="30" value="Translated Answer" style="editableCssRules=.*;shape=image;verticalLabelPosition=bottom;labelBackgroundColor=none;verticalAlign=top;aspect=fixed;imageAspect=0;image=data:image/svg+xml,PHN2ZyB4bWxucz0iaHR0cDovL3d3dy53My5vcmcvMjAwMC9zdmciIHhtbG5zOnY9Imh0dHBzOi8vdmVjdGEuaW8vbmFubyIgd2lkdGg9IjE4IiBoZWlnaHQ9IjIwIiB2aWV3Qm94PSIwIDAgMTggMjAiPgoJPHN0eWxlIHR5cGU9InRleHQvY3NzIj4uc3QwIHsgZmlsbDogcmdiKDAsIDE1MywgMCk7IH0gLnN0MSB7IGZpbGw6IHJnYigwLCAxNTMsIDApOyB9IDwvc3R5bGU+Cgk8cGF0aCBjbGFzcz0ic3QwIiBkPSJNOCAwaDJ2MjBIOHpNNCA2aDJ2OEg0em04IDBoMnY4aC0yek0wIDNoMnYxNEgwem0xNiAwaDJ2MTRoLTJ6Ii8+Cgk8cGF0aCBjbGFzcz0ic3QxIiBkPSJNOCAwaDJ2MTBIOHpNNCA2aDJ2NEg0em04IDBoMnY0aC0yek0wIDNoMnY3SDB6bTE2IDBoMnY3aC0yeiIvPgo8L3N2Zz4=;" parent="1" vertex="1">
                    <mxGeometry x="327" y="520" width="27" height="30" as="geometry"/>
                </mxCell>
            </root>
        </mxGraphModel>
    </diagram>
</mxfile>